<svg id="Layer_1" data-name="Layer 1" xmlns="http://www.w3.org/2000/svg" viewBox="0 0 335.12 531.21"><defs><style>.cls-1,.cls-2{stroke:#000;stroke-miterlimit:10;}.cls-2{fill:#fff;stroke-width:2px;}.cls-3{fill:#6f4b40;}</style></defs><title>Tyler</title><polygon class="cls-1" points="330.05 206.12 281.51 227.95 285.42 232.83 319.62 225.99 328.42 225.99 330.05 206.12"/><path class="cls-2" d="M117.54,114.22s-25,28-32,40-25,54-24,68,27,197,40,208,88.79,70.25,102,75c39,14,43,9,54,8s31.91-16.77,35-20c21-22,30-55,33-62s10-98,10-104,4-47,0-53-12-11-10-16,8-16,7-23-22-78-32-90-56-36-73-40c-15.61-3.67-47-7-60-8S117.54,114.22,117.54,114.22Z" transform="translate(-32.44 -34.4)"/><path class="cls-3" d="M326.92,214.44l-27.2-68L275.4,128.66l-57.86-12.44s-33-6-47,0-38,16-42,21S121,146,126,150s21.57,15.27,13.57,27.27-30,27-32,37-10,53-8,60,8,35,12,41,19,52,38,63,31,14,31,14,4,6,14-4,27-32,35-34,37-19,45-10-32,39-40,42-26,5-27,16,0,20,20,31,28,8,25,5-6-7-5-14,8-10,18-10h16s8,2,0,9-22,24-6,18,28-15,30-22,11-12,7-23-11-13-19-21-24-3-18-13,2-23,15-18,22,12,32,21l10,9,3.24-47.7s7.76,23.7,7.76,34.7,13,18,12,39-9,96-34,122-50,40-60,43-113-12-122-25-44-66-48-83-17-95-18-101-8.71-74.39-17.29-115.7c-10.79-51.9,51.05-152.2,68.41-146.61,8,2.56-1.84-1.71-6.84-12.71s2.72-10,21.72-23,38.88-14.16,70-23c16.34-4.65,21.24,11.34,51,24.48,7.32,3.24,30.3-18.57,29.32-5.86C288.49,71.4,310,82.76,344.54,97.22c15.15,6.34,1,32-7,39s-25,9-18,19,9,31,9,39A196.16,196.16,0,0,1,326.92,214.44Z" transform="translate(-32.44 -34.4)"/><path class="cls-1" d="M365.75,239.86s-33.88-13.68-46.91-13S292.77,232,282.35,232s-26.72-7.81-39.1-11.72-56-7.82-72.32-6.52-10.43-1.3-16.29,1.3-42,14.15-50.67,18.48c-6.58,3.3-23.28,17-30.86,23.26-2.36,2-3.83,5.83-3.83,5.83l16.29-10.43s5.21,2,14.33-.65,42.36-13,42.36-13,5.86-2.61,10.42-1.95,5.87,2.6,7.17,8.47,2.61,17.59,3.26,18.24,12.38,8.47,33.23,11.08,47.56,2,54.08-2.61,15-26.06,17.59-27.37,10.43-2.6,13,1.31,7.82,15,7.82,15,1.18,10.78,6.52,14.34c9.77,6.51,39.74,10.42,48.22,9.12s17.59-9.77,17.59-11.73.65-9.77,2.6-12.38,3.26-13.68,3.26-13.68Zm-106.86,4.56c0,4.57-2.61,13.69-7.17,19.55s-9.77,7.17-27.36,8.47-39.1-4.56-44.31-5.21-11.73-3.91-13-7.17-2.61-13-2-24.11,2.61-16.29,18.25-17.59c12.12-1,54.54,2.1,66.28,8.29,1.28.68,2.55,1.35,3.87,1.94s3.29,2.06,4.78,5.41C259.42,236.66,258.89,239.86,258.89,244.42Zm99.37,29c-1.31,4.89-8.8,6.84-13.36,7.82s-22.16.65-32.25-2-15.32-5.86-19.55-10.42-3.91-29.32-2.93-31.93,3.9-4.23,21.17-5.86c12.46-1.18,30,3.58,38.82,6.33,4.06,1.26,7.68,1.54,10,5.07.54.79.9,3.75,1,4.24C361.51,248.66,359.56,268.53,358.26,273.42Z" transform="translate(-32.44 -34.4)"/><path class="cls-2" d="M79.05,284.17s4.56-13,2-17.59-21.67-12.42-31.28-14.34c-3.26-.65-12.38,7.17-13.68,15s-2.61,12.38-2.61,15.64,5.87,23.45,9.12,28.67,9.78,13.68,11.73,20.2,5.87,16.94,9.12,19.54,23.14,7.5,25.09-.32c1-3.79-7.49-16.62-8.8-19.88s-4.56-37.79-2.6-41.7S79.05,284.17,79.05,284.17Z" transform="translate(-32.44 -34.4)"/><path class="cls-3" d="M87.48,379.3l7.82-20.52s-2-19.59-2-27.6-2.74-72.09-6.41-72.09-9.15,6.23-11.9,14.24-4.58,32.93-1.83,37.38" transform="translate(-32.44 -34.4)"/></svg>
